<svg width="75" height="42" viewBox="0 0 75 42" fill="none" xmlns="http://www.w3.org/2000/svg">
<path d="M18.888 18L15.256 6.8H18.52L21.576 16.496H19.928L23.144 6.8H26.056L29.096 16.496H27.512L30.664 6.8H33.688L30.056 18H26.664L24.072 9.76H24.984L22.28 18H18.888ZM38.3905 18.144C37.4412 18.144 36.5985 17.952 35.8625 17.568C35.1265 17.184 34.5452 16.656 34.1185 15.984C33.7025 15.3013 33.4945 14.5227 33.4945 13.648C33.4945 12.7733 33.7025 12 34.1185 11.328C34.5452 10.656 35.1265 10.1333 35.8625 9.76C36.5985 9.376 37.4412 9.184 38.3905 9.184C39.3398 9.184 40.1825 9.376 40.9185 9.76C41.6652 10.1333 42.2465 10.656 42.6625 11.328C43.0785 12 43.2865 12.7733 43.2865 13.648C43.2865 14.5227 43.0785 15.3013 42.6625 15.984C42.2465 16.656 41.6652 17.184 40.9185 17.568C40.1825 17.952 39.3398 18.144 38.3905 18.144ZM38.3905 15.728C38.7425 15.728 39.0518 15.648 39.3185 15.488C39.5958 15.328 39.8145 15.0933 39.9745 14.784C40.1345 14.464 40.2145 14.0853 40.2145 13.648C40.2145 13.2107 40.1345 12.8427 39.9745 12.544C39.8145 12.2347 39.5958 12 39.3185 11.84C39.0518 11.68 38.7425 11.6 38.3905 11.6C38.0492 11.6 37.7398 11.68 37.4625 11.84C37.1958 12 36.9772 12.2347 36.8065 12.544C36.6465 12.8427 36.5665 13.2107 36.5665 13.648C36.5665 14.0853 36.6465 14.464 36.8065 14.784C36.9772 15.0933 37.1958 15.328 37.4625 15.488C37.7398 15.648 38.0492 15.728 38.3905 15.728ZM46.9661 18L43.3341 6.8H46.5981L49.6541 16.496H48.0061L51.2221 6.8H54.1341L57.1741 16.496H55.5901L58.7421 6.8H61.7661L58.1341 18H54.7421L52.1501 9.76H53.0621L50.3581 18H46.9661Z" fill="white"/>
<path d="M15.576 32V30.272L15.464 29.904V26.88C15.464 26.2933 15.288 25.84 14.936 25.52C14.584 25.1893 14.0507 25.024 13.336 25.024C12.856 25.024 12.3813 25.0987 11.912 25.248C11.4533 25.3973 11.064 25.6053 10.744 25.872L9.96 24.416C10.4187 24.064 10.9627 23.8027 11.592 23.632C12.232 23.4507 12.8933 23.36 13.576 23.36C14.8133 23.36 15.768 23.6587 16.44 24.256C17.1227 24.8427 17.464 25.7547 17.464 26.992V32H15.576ZM12.888 32.112C12.248 32.112 11.688 32.0053 11.208 31.792C10.728 31.568 10.3547 31.264 10.088 30.88C9.832 30.4853 9.704 30.0427 9.704 29.552C9.704 29.072 9.816 28.64 10.04 28.256C10.2747 27.872 10.6533 27.568 11.176 27.344C11.6987 27.12 12.392 27.008 13.256 27.008H15.736V28.336H13.4C12.7173 28.336 12.2587 28.448 12.024 28.672C11.7893 28.8853 11.672 29.152 11.672 29.472C11.672 29.8347 11.816 30.1227 12.104 30.336C12.392 30.5493 12.792 30.656 13.304 30.656C13.7947 30.656 14.232 30.544 14.616 30.32C15.0107 30.096 15.2933 29.7653 15.464 29.328L15.8 30.528C15.608 31.0293 15.2613 31.4187 14.76 31.696C14.2693 31.9733 13.6453 32.112 12.888 32.112ZM23.9184 35.216C23.129 35.216 22.3557 35.1093 21.5984 34.896C20.8517 34.6933 20.2384 34.3947 19.7584 34L20.6544 32.496C21.0277 32.8053 21.497 33.0507 22.0624 33.232C22.6384 33.424 23.2197 33.52 23.8064 33.52C24.745 33.52 25.433 33.3013 25.8704 32.864C26.3077 32.4373 26.5264 31.792 26.5264 30.928V29.408L26.6864 27.472L26.6224 25.536V23.456H28.5264V30.704C28.5264 32.2507 28.1317 33.3867 27.3424 34.112C26.553 34.848 25.4117 35.216 23.9184 35.216ZM23.6624 31.616C22.8517 31.616 22.1157 31.4453 21.4544 31.104C20.8037 30.752 20.2864 30.2667 19.9024 29.648C19.529 29.0293 19.3424 28.304 19.3424 27.472C19.3424 26.6507 19.529 25.9307 19.9024 25.312C20.2864 24.6933 20.8037 24.2133 21.4544 23.872C22.1157 23.5307 22.8517 23.36 23.6624 23.36C24.3877 23.36 25.0384 23.504 25.6144 23.792C26.1904 24.08 26.649 24.528 26.9904 25.136C27.3424 25.744 27.5184 26.5227 27.5184 27.472C27.5184 28.4213 27.3424 29.2053 26.9904 29.824C26.649 30.432 26.1904 30.8853 25.6144 31.184C25.0384 31.472 24.3877 31.616 23.6624 31.616ZM23.9664 29.92C24.4677 29.92 24.9157 29.8187 25.3104 29.616C25.705 29.4027 26.009 29.1147 26.2224 28.752C26.4464 28.3787 26.5584 27.952 26.5584 27.472C26.5584 26.992 26.4464 26.5707 26.2224 26.208C26.009 25.8347 25.705 25.552 25.3104 25.36C24.9157 25.1573 24.4677 25.056 23.9664 25.056C23.465 25.056 23.0117 25.1573 22.6064 25.36C22.2117 25.552 21.9024 25.8347 21.6784 26.208C21.465 26.5707 21.3584 26.992 21.3584 27.472C21.3584 27.952 21.465 28.3787 21.6784 28.752C21.9024 29.1147 22.2117 29.4027 22.6064 29.616C23.0117 29.8187 23.465 29.92 23.9664 29.92ZM35.1718 32.112C34.2224 32.112 33.3904 31.9253 32.6758 31.552C31.9718 31.168 31.4224 30.6453 31.0278 29.984C30.6438 29.3227 30.4518 28.5707 30.4518 27.728C30.4518 26.8747 30.6384 26.1227 31.0118 25.472C31.3958 24.8107 31.9184 24.2933 32.5798 23.92C33.2518 23.5467 34.0144 23.36 34.8678 23.36C35.6998 23.36 36.4411 23.5413 37.0918 23.904C37.7424 24.2667 38.2544 24.7787 38.6278 25.44C39.0011 26.1013 39.1878 26.88 39.1878 27.776C39.1878 27.8613 39.1824 27.9573 39.1718 28.064C39.1718 28.1707 39.1664 28.272 39.1558 28.368H32.0358V27.04H38.0998L37.3158 27.456C37.3264 26.9653 37.2251 26.5333 37.0118 26.16C36.7984 25.7867 36.5051 25.4933 36.1318 25.28C35.7691 25.0667 35.3478 24.96 34.8678 24.96C34.3771 24.96 33.9451 25.0667 33.5718 25.28C33.2091 25.4933 32.9211 25.792 32.7078 26.176C32.5051 26.5493 32.4038 26.992 32.4038 27.504V27.824C32.4038 28.336 32.5211 28.7893 32.7558 29.184C32.9904 29.5787 33.3211 29.8827 33.7478 30.096C34.1744 30.3093 34.6651 30.416 35.2198 30.416C35.6998 30.416 36.1318 30.3413 36.5158 30.192C36.8998 30.0427 37.2411 29.808 37.5398 29.488L38.6118 30.72C38.2278 31.168 37.7424 31.5147 37.1558 31.76C36.5798 31.9947 35.9184 32.112 35.1718 32.112ZM45.9569 23.36C46.6395 23.36 47.2475 23.4933 47.7809 23.76C48.3249 24.0267 48.7515 24.4373 49.0609 24.992C49.3702 25.536 49.5249 26.24 49.5249 27.104V32H47.5249V27.36C47.5249 26.6027 47.3435 26.0373 46.9809 25.664C46.6289 25.2907 46.1329 25.104 45.4929 25.104C45.0235 25.104 44.6075 25.2 44.2449 25.392C43.8822 25.584 43.5995 25.872 43.3969 26.256C43.2049 26.6293 43.1089 27.104 43.1089 27.68V32H41.1089V23.456H43.0129V25.76L42.6769 25.056C42.9755 24.512 43.4075 24.096 43.9729 23.808C44.5489 23.5093 45.2102 23.36 45.9569 23.36ZM55.9976 32.112C55.1016 32.112 54.3016 31.9253 53.5976 31.552C52.9043 31.168 52.3603 30.6453 51.9656 29.984C51.571 29.3227 51.3736 28.5707 51.3736 27.728C51.3736 26.8747 51.571 26.1227 51.9656 25.472C52.3603 24.8107 52.9043 24.2933 53.5976 23.92C54.3016 23.5467 55.1016 23.36 55.9976 23.36C56.8296 23.36 57.5603 23.5307 58.1896 23.872C58.8296 24.2027 59.315 24.6933 59.6456 25.344L58.1096 26.24C57.8536 25.8347 57.539 25.536 57.1656 25.344C56.803 25.152 56.4083 25.056 55.9816 25.056C55.491 25.056 55.0483 25.1627 54.6536 25.376C54.259 25.5893 53.9496 25.8987 53.7256 26.304C53.5016 26.6987 53.3896 27.1733 53.3896 27.728C53.3896 28.2827 53.5016 28.7627 53.7256 29.168C53.9496 29.5627 54.259 29.8667 54.6536 30.08C55.0483 30.2933 55.491 30.4 55.9816 30.4C56.4083 30.4 56.803 30.304 57.1656 30.112C57.539 29.92 57.8536 29.6213 58.1096 29.216L59.6456 30.112C59.315 30.752 58.8296 31.248 58.1896 31.6C57.5603 31.9413 56.8296 32.112 55.9976 32.112ZM61.9691 35.216C61.5531 35.216 61.1371 35.1467 60.7211 35.008C60.3051 34.8693 59.9585 34.6773 59.6811 34.432L60.4811 32.96C60.6838 33.1413 60.9131 33.2853 61.1691 33.392C61.4251 33.4987 61.6865 33.552 61.9531 33.552C62.3158 33.552 62.6091 33.4613 62.8331 33.28C63.0571 33.0987 63.2651 32.7947 63.4571 32.368L63.9531 31.248L64.1131 31.008L67.3451 23.456H69.2651L65.2651 32.688C64.9985 33.328 64.6998 33.8347 64.3691 34.208C64.0491 34.5813 63.6865 34.8427 63.2811 34.992C62.8865 35.1413 62.4491 35.216 61.9691 35.216ZM63.7291 32.304L59.8731 23.456H61.9531L65.0891 30.832L63.7291 32.304Z" fill="white"/>
</svg>
