<?xml version="1.0" standalone="no"?>
<!DOCTYPE svg PUBLIC "-//W3C//DTD SVG 20010904//EN"
 "http://www.w3.org/TR/2001/REC-SVG-20010904/DTD/svg10.dtd">
<svg version="1.0" xmlns="http://www.w3.org/2000/svg"
 width="700.000000pt" height="700.000000pt" viewBox="0 0 700.000000 700.000000"
 preserveAspectRatio="xMidYMid meet">
<metadata>
Created by potrace 1.14, written by Peter Selinger 2001-2017
</metadata>
<g transform="translate(0.000000,700.000000) scale(0.100000,-0.100000)"
fill="#000000" stroke="none">
<path d="M3278 6995 c-1 -1 -42 -5 -89 -9 -47 -4 -95 -8 -105 -10 -10 -2 -41
-7 -69 -10 -416 -54 -865 -207 -1245 -424 -86 -49 -301 -187 -339 -218 -9 -7
-52 -41 -96 -75 -340 -264 -650 -624 -875 -1014 -47 -81 -170 -327 -170 -339
0 -3 -11 -29 -24 -58 -43 -96 -112 -298 -142 -413 -4 -16 -8 -34 -10 -40 -5
-16 -25 -98 -30 -120 -48 -237 -54 -277 -71 -465 -15 -165 -8 -592 12 -711 2
-13 6 -46 9 -74 9 -78 22 -152 51 -285 21 -96 91 -339 114 -395 5 -11 25 -65
46 -120 64 -170 213 -461 314 -615 213 -323 469 -603 771 -845 92 -74 370
-265 386 -265 4 0 15 -6 23 -14 27 -23 262 -141 398 -199 265 -114 591 -204
872 -243 25 -3 57 -8 71 -10 162 -25 683 -25 842 1 13 2 46 7 73 10 71 10 87
13 115 18 14 3 43 8 65 12 22 4 76 16 120 27 44 10 87 21 96 23 79 18 303 92
429 143 471 188 947 525 1290 911 36 41 70 79 76 85 6 6 48 61 94 121 150 197
277 405 383 628 26 53 47 99 47 102 0 2 11 28 24 57 57 127 151 421 182 573
17 81 54 301 59 350 4 33 9 71 11 85 9 47 11 525 4 605 -15 159 -21 210 -25
225 -2 8 -7 35 -10 60 -17 129 -80 384 -136 552 -314 934 -1016 1701 -1917
2095 -240 104 -446 169 -711 224 -53 11 -112 22 -131 24 -19 3 -46 7 -60 10
-13 2 -52 7 -86 11 -33 3 -74 8 -90 10 -32 5 -540 14 -546 9z"/>
</g>
</svg>
