<svg width="47" height="13" viewBox="0 0 47 13" fill="none" xmlns="http://www.w3.org/2000/svg">
<path d="M3.888 12L0.256 0.799999H3.52L6.576 10.496H4.928L8.144 0.799999H11.056L14.096 10.496H12.512L15.664 0.799999H18.688L15.056 12H11.664L9.072 3.76H9.984L7.28 12H3.888ZM23.3905 12.144C22.4412 12.144 21.5985 11.952 20.8625 11.568C20.1265 11.184 19.5452 10.656 19.1185 9.984C18.7025 9.30133 18.4945 8.52267 18.4945 7.648C18.4945 6.77333 18.7025 6 19.1185 5.328C19.5452 4.656 20.1265 4.13333 20.8625 3.76C21.5985 3.376 22.4412 3.184 23.3905 3.184C24.3398 3.184 25.1825 3.376 25.9185 3.76C26.6652 4.13333 27.2465 4.656 27.6625 5.328C28.0785 6 28.2865 6.77333 28.2865 7.648C28.2865 8.52267 28.0785 9.30133 27.6625 9.984C27.2465 10.656 26.6652 11.184 25.9185 11.568C25.1825 11.952 24.3398 12.144 23.3905 12.144ZM23.3905 9.728C23.7425 9.728 24.0518 9.648 24.3185 9.488C24.5958 9.328 24.8145 9.09333 24.9745 8.784C25.1345 8.464 25.2145 8.08533 25.2145 7.648C25.2145 7.21067 25.1345 6.84267 24.9745 6.544C24.8145 6.23467 24.5958 6 24.3185 5.84C24.0518 5.68 23.7425 5.6 23.3905 5.6C23.0492 5.6 22.7398 5.68 22.4625 5.84C22.1958 6 21.9772 6.23467 21.8065 6.544C21.6465 6.84267 21.5665 7.21067 21.5665 7.648C21.5665 8.08533 21.6465 8.464 21.8065 8.784C21.9772 9.09333 22.1958 9.328 22.4625 9.488C22.7398 9.648 23.0492 9.728 23.3905 9.728ZM31.9661 12L28.3341 0.799999H31.5981L34.6541 10.496H33.0061L36.2221 0.799999H39.1341L42.1741 10.496H40.5901L43.7421 0.799999H46.7661L43.1341 12H39.7421L37.1501 3.76H38.0621L35.3581 12H31.9661Z" fill="white"/>
</svg>
